# xmcd
#
# Track frame offsets:
#	150
#	26477
#	54568
#	82208
#	112696
#	133601
#	152144
#	172477
#	195832
#	216359
#	240801
#	271639
#
# Disc length: 3895 seconds
#
# Revision: 0
# Processed by: cddbd v1.5.2PL0 Copyright (c) Steve Scherf et al.
# Submitted via: EZCDAudioConverter 1.3.4.1
#
DISCID=9a0f350c
DTITLE=Swing Out Sister - It's Better To Travel 2/2
DYEAR=1900
DGENRE=
TTITLE0=Breakout [A New Rockin' Version]
TTITLE1=Surrender [Roadrunner Mix]
TTITLE2=Fooled By A Smile [12'' Ralph Mix]
TTITLE3=Blue Mood [Dubbed Up Mix]
TTITLE4=Communion [Instrumental]
TTITLE5=Dirty Money
TTITLE6=Fever
TTITLE7=Who's To Blame?
TTITLE8=Wake Me When It's Over
TTITLE9=Another Lost Weekend
TTITLE10=Blue Mood [Growler Mix]
TTITLE11=Breakout [Horny Mix]
EXTD=
EXTT0=
EXTT1=
EXTT2=
EXTT3=
EXTT4=
EXTT5=
EXTT6=
EXTT7=
EXTT8=
EXTT9=
EXTT10=
EXTT11=
PLAYORDER=
